{"title":"Mayweather vs. Berto - Main Event Press Conference September 9th","uid":12392449,"size":919963455,"categoryP":"video","categoryS":"tv_shows","magnet":"?xt=urn:btih:cf9b9f2f07edfd99134fd83a555cee2a3fd97c0a&amp;dn=Mayweather+vs.+Berto+-+Main+Event+Press+Conference+September+9th&amp;tr=udp%3A%2F%2Ftracker.openbittorrent.com%3A80&amp;tr=udp%3A%2F%2Fopen.demonii.com%3A1337&amp;tr=udp%3A%2F%2Ftracker.coppersurfer.tk%3A6969&amp;tr=udp%3A%2F%2Fexodus.desync.com%3A6969","seeders":1,"leechers":1,"uploader":"SS132203","files":2,"time":1441909965,"description":"Mayweather vs. Berto - Main Event Press Conference September 9th 2015 - 720p - WEBRip -={SPARROW}=-\n &lt;a href=&quot;\nhttp://imgsparrow.co/image/8Zd&quot; rel=&quot;nofollow&quot; target=&quot;_NEW&quot;&gt;\nhttp://imgsparrow.co/image/8Zd&lt;/a&gt;\n\nInfo : - \n\nFormat                      : MPEG-4\nFormat profile              : Base Media / Version 2\nCodec ID                    : mp42\nFile size                   : 877 MiB\nDuration                    : 49mn 41s\nOverall bit rate mode       : Variable\nOverall bit rate            : 2 469 Kbps\n\nVideo\nID                          : 1\nFormat                      : AVC\nFormat/Info                 : Advanced Video Codec\nFormat profile              : &lt;a class=&quot;__cf_email__&quot; href=&quot;/cdn-cgi/l/email-protection&quot; data-cfemail=&quot;1b53727c735b5728352a&quot;&gt;[email&amp;#160;protected]&lt;/a&gt;&lt;script data-cfhash='f9e31' type=&quot;text/javascript&quot;&gt;\n/* &lt;![CDATA[ */!function(){try{var t=&quot;currentScript&quot;in document?document.currentScript:function(){for(var t=document.getElementsByTagName(&quot;script&quot;),e=t.length;e--;)if(t[e].getAttribute(&quot;data-cfhash&quot;))return t[e]}();if(t&amp;&amp;t.previousSibling){var e,r,n,i,c=t.previousSibling,a=c.getAttribute(&quot;data-cfemail&quot;);if(a){for(e=&quot;&quot;,r=parseInt(a.substr(0,2),16),n=2;a.length-n;n+=2)i=parseInt(a.substr(n,2),16)^r,e+=String.fromCharCode(i);e=document.createTextNode(e),c.parentNode.replaceChild(e,c)}t.parentNode.removeChild(t);}}catch(u){}}()/* ]]&gt; */&lt;/script&gt;\nFormat settings, CABAC      : Yes\nFormat settings, ReFrames   : 1 frame\nCodec ID                    : avc1\nCodec ID/Info               : Advanced Video Coding\nDuration                    : 49mn 41s\nBit rate                    : 2 274 Kbps\nMaximum bit rate            : 5 978 Kbps\nWidth                       : 1 280 pixels\nHeight                      : 720 pixels\nDisplay aspect ratio        : 16:9\nFrame rate mode             : Constant\nFrame rate                  : 30.000 fps\nColor space                 : YUV\nChroma subsampling          : 4:2:0\nBit depth                   : 8 bits\nScan type                   : Progressive\nBits/(Pixel*Frame)          : 0.082\nStream size                 : 808 MiB (92%)\nTagged date                 : UTC 2015-09-10 00:44:04\n\nAudio\nID                          : 2\nFormat                      : AAC\nFormat/Info                 : Advanced Audio Codec\nFormat profile              : LC\nCodec ID                    : 40\nDuration                    : 49mn 41s\nBit rate mode               : Variable\nBit rate                    : 192 Kbps\nMaximum bit rate            : 202 Kbps\nChannel(s)                  : 2 channels\nChannel positions           : Front: L R\nSampling rate               : 44.1 KHz\nCompression mode            : Lossy\nStream size                 : 68.2 MiB (8%)\n\nScreens : - \n &lt;a href=&quot;\nhttp://imgsparrow.co/image/8Zo&quot; rel=&quot;nofollow&quot; target=&quot;_NEW&quot;&gt;\nhttp://imgsparrow.co/image/8Zo&lt;/a&gt;\n &lt;a href=&quot;\nhttp://imgsparrow.co/image/8nG&quot; rel=&quot;nofollow&quot; target=&quot;_NEW&quot;&gt;\nhttp://imgsparrow.co/image/8nG&lt;/a&gt;","torrent":{"xt":"urn:btih:cf9b9f2f07edfd99134fd83a555cee2a3fd97c0a","amp;dn":"Mayweather+vs.+Berto+-+Main+Event+Press+Conference+September+9th","amp;tr":["udp%3A%2F%2Ftracker.openbittorrent.com%3A80","udp%3A%2F%2Fopen.demonii.com%3A1337","udp%3A%2F%2Ftracker.coppersurfer.tk%3A6969","udp%3A%2F%2Fexodus.desync.com%3A6969"],"infoHash":"cf9b9f2f07edfd99134fd83a555cee2a3fd97c0a","infoHashBuffer":{"type":"Buffer","data":[207,155,159,47,7,237,253,153,19,79,216,58,85,92,238,42,63,217,124,10]},"announce":[],"urlList":[]}}